<?xml version="1.0" encoding="UTF-8"?>
<svg version="1.1" xmlns="http://www.w3.org/2000/svg"  width="72" height="20" viewBox="0 0 72 20" fill="none">
<path d="M0 0 C194.04 0 388.08 0 588 0 C588 68.97 588 137.94 588 209 C393.96 209 199.92 209 0 209 C0 140.03 0 71.06 0 0 Z " fill="#FEFEFE" transform="translate(0,0)"/>
<path d="M0 0 C5.17058355 3.30917347 9.29999603 7.19498649 11.0625 13.1875 C11.083125 14.445625 11.10375 15.70375 11.125 17 C11.18429687 17.99386719 11.24359375 18.98773438 11.3046875 20.01171875 C11.6234375 28.08359383 11.04906091 34.69354801 5.44140625 40.84765625 C-0.52164316 46.27210765 -5.74138947 46.35237543 -13.671875 46.28125 C-19.27878616 45.78893585 -22.24496514 43.72059236 -26.125 39.625 C-29.99697877 33.81703185 -31.40904723 29.50113954 -31.3125 22.625 C-31.30420166 21.86985107 -31.29590332 21.11470215 -31.28735352 20.33666992 C-31.08308444 13.62341397 -29.91320866 9.1210689 -25.15625 4.234375 C-18.37566432 -1.91412219 -8.738404 -3.11230827 0 0 Z " fill="#080808" transform="translate(282.875,85)"/>
<path d="M0 0 C25.95010395 0 25.95010395 0 30.91015625 4.87890625 C32.91250286 8.77594643 32.62671664 12.74383641 32 17 C30.19413985 20.16025526 29.17077636 21.57721965 25.75 22.8125 C25.1725 22.874375 24.595 22.93625 24 23 C24.76699219 23.83144531 25.53398437 24.66289063 26.32421875 25.51953125 C29.20379084 28.97806492 30.52496154 32.41962662 31.8125 36.6875 C32.13637695 37.68233398 32.13637695 37.68233398 32.46679688 38.69726562 C33.37985558 41.57557449 34 43.96316569 34 47 C31.03 47 28.06 47 25 47 C24.68546875 45.87980469 24.3709375 44.75960937 24.046875 43.60546875 C23.61533179 42.132593 23.18299863 40.65994854 22.75 39.1875 C22.54503906 38.44951172 22.34007812 37.71152344 22.12890625 36.95117188 C21.20588412 33.86044626 20.44401466 31.51767129 18.328125 29.05078125 C15.19768292 27.50002535 15.19768292 27.50002535 8 27 C8 33.6 8 40.2 8 47 C5.36 47 2.72 47 0 47 C0 31.49 0 15.98 0 0 Z " fill="#040404" transform="translate(305,84)"/>
<path d="M0 0 C0.69029297 -0.01160156 1.38058594 -0.02320312 2.09179688 -0.03515625 C6.81982679 -0.00826698 10.05786397 0.88467243 14.0625 3.375 C16.4375 6.0625 16.4375 6.0625 18.0625 8.375 C15.75 10.875 15.75 10.875 13.0625 13.375 C10.0625 13.375 10.0625 13.375 8.0625 11.4375 C7.4025 10.756875 6.7425 10.07625 6.0625 9.375 C1.91093667 7.99114556 -1.92425096 7.87168774 -6.1875 8.9375 C-9.03619423 11.27749883 -10.12660363 13.87874389 -10.9375 17.375 C-11.60349272 24.52992182 -11.81042066 31.15066322 -7.9375 37.375 C-4.65996406 40.06726166 -1.02935899 39.66727564 3.0625 39.375 C5.44808027 39.0574493 5.44808027 39.0574493 7.0625 37.375 C8.01274789 34.71430591 8.52224679 32.16630826 9.0625 29.375 C5.4325 29.375 1.8025 29.375 -1.9375 29.375 C-1.9375 26.735 -1.9375 24.095 -1.9375 21.375 C4.6625 21.375 11.2625 21.375 18.0625 21.375 C18.0625 29.955 18.0625 38.535 18.0625 47.375 C15.4225 47.375 12.7825 47.375 10.0625 47.375 C10.0625 45.395 10.0625 43.415 10.0625 41.375 C9.4025 41.375 8.7425 41.375 8.0625 41.375 C7.794375 41.99375 7.52625 42.6125 7.25 43.25 C6.0625 45.375 6.0625 45.375 3.0625 47.375 C-2.65115042 48.10850918 -8.96176403 48.6206992 -14 45.4375 C-19.06415669 40.85204468 -20.87799209 35.76524274 -21.28125 29.03515625 C-21.32725239 27.44046145 -21.35833371 25.84527112 -21.375 24.25 C-21.38523193 23.48598877 -21.39546387 22.72197754 -21.40600586 21.93481445 C-21.30518746 15.42251012 -19.91262886 10.66199131 -15.5625 5.625 C-10.43339827 1.22862709 -6.75323999 -0.11286752 0 0 Z " fill="#06C067" transform="translate(465.9375,83.625)"/>
<path d="M0 0 C24.22580645 0 24.22580645 0 30.4375 4.9375 C32.88358736 9.73183123 32.77874067 14.72420735 32 20 C29.71162967 24.41462178 27.79131516 27.40289495 23 29 C20.42502932 29.07035439 17.88550071 29.0934934 15.3125 29.0625 C11.6928125 29.0315625 11.6928125 29.0315625 8 29 C8 34.94 8 40.88 8 47 C5.36 47 2.72 47 0 47 C0 31.49 0 15.98 0 0 Z " fill="#020202" transform="translate(175,84)"/>
<path d="M0 0 C9.9 0 19.8 0 30 0 C30 2.31 30 4.62 30 7 C23.07 7 16.14 7 9 7 C9 10.96 9 14.92 9 19 C15.27 19 21.54 19 28 19 C28 21.64 28 24.28 28 27 C21.73 27 15.46 27 9 27 C9 30.96 9 34.92 9 39 C16.26 39 23.52 39 31 39 C31 41.64 31 44.28 31 47 C20.77 47 10.54 47 0 47 C0 31.49 0 15.98 0 0 Z " fill="#0C0C0C" transform="translate(93,84)"/>
<path d="M0 0 C1.28648437 -0.01675781 2.57296875 -0.03351563 3.8984375 -0.05078125 C8.57280713 0.40489629 11.88597405 1.65031473 15.3046875 4.91796875 C16.41145833 6.3828125 17.51822917 7.84765625 18.625 9.3125 C16.09711993 12.11122437 14.42088866 13.77023019 10.625 14.3125 C9.7278125 13.1059375 9.7278125 13.1059375 8.8125 11.875 C6.81552724 9.08922016 6.81552724 9.08922016 3.625 8.3125 C-1.35225826 7.9438142 -4.41929615 8.14793692 -8.375 11.3125 C-11.04140587 15.08835447 -10.7064512 19.31162788 -10.6875 23.75 C-10.70361328 24.50087891 -10.71972656 25.25175781 -10.73632812 26.02539062 C-10.74037238 30.62371417 -10.29602068 33.55177558 -7.375 37.3125 C-3.95323311 39.87882517 -0.52859579 39.67685051 3.625 39.3125 C7.06621198 37.85954383 8.2907595 36.99689721 9.9375 33.625 C10.164375 32.861875 10.39125 32.09875 10.625 31.3125 C13.99962715 31.85973683 15.70735 32.3674 18.625 34.3125 C18.19034864 39.23854873 16.02873025 41.83141224 12.625 45.3125 C6.44453203 48.5171871 -0.62726781 48.00733017 -7.375 47.3125 C-13.1354118 45.30925231 -16.52815654 41.67770497 -19.375 36.3125 C-22.22340495 28.96879414 -22.82299893 20.89583545 -20.4296875 13.3203125 C-18.20305609 8.60097423 -15.90602065 5.1008204 -11.375 2.3125 C-10.81683594 1.95800781 -10.25867188 1.60351562 -9.68359375 1.23828125 C-6.41386607 -0.07292934 -3.51167785 0.01051401 0 0 Z " fill="#08C168" transform="translate(420.375,83.6875)"/>
<path d="M0 0 C2.97 0 5.94 0 9 0 C11.97 5.28 14.94 10.56 18 16 C20.95791344 12.30260819 23.07892171 9.28294314 25.25 5.1875 C25.77078125 4.21167969 26.2915625 3.23585938 26.828125 2.23046875 C27.21484375 1.49441406 27.6015625 0.75835937 28 0 C30.97 0 33.94 0 37 0 C35.8887491 3.14342796 34.495336 5.95465632 32.80078125 8.8125 C32.39666016 9.49570313 31.99253906 10.17890625 31.57617188 10.8828125 C30.73063006 12.29945443 29.87636876 13.71092671 29.01367188 15.1171875 C28.41329102 16.14199219 28.41329102 16.14199219 27.80078125 17.1875 C27.43122314 17.79980469 27.06166504 18.41210938 26.6809082 19.04296875 C25.74550324 21.73146146 26.18318502 23.29413831 27 26 C28.10208592 28.31738221 28.10208592 28.31738221 29.50390625 30.57421875 C29.99697266 31.40630859 30.49003906 32.23839844 30.99804688 33.09570312 C31.51431641 33.95099609 32.03058594 34.80628906 32.5625 35.6875 C33.58846765 37.39744608 34.61079852 39.10958122 35.62890625 40.82421875 C36.08338135 41.57791748 36.53785645 42.33161621 37.00610352 43.1081543 C38 45 38 45 38 47 C34.86284569 47.52350535 32.11900186 47.70010464 29 47 C26.46503059 44.57318929 25.08726566 41.69465409 23.5625 38.5625 C22.73423615 36.9784931 21.90238046 35.39635751 21.06640625 33.81640625 C20.71521729 33.10943604 20.36402832 32.40246582 20.00219727 31.67407227 C19.09943193 29.82567095 19.09943193 29.82567095 17 29 C16.74476563 29.68449219 16.48953125 30.36898437 16.2265625 31.07421875 C14.81150892 34.44961726 13.12741434 37.59974038 11.375 40.8125 C11.05015625 41.40998047 10.7253125 42.00746094 10.390625 42.62304688 C9.59620849 44.08337135 8.79844624 45.54187491 8 47 C5.03 47 2.06 47 -1 47 C0.14551974 43.68998075 1.66711049 40.78103022 3.453125 37.78515625 C3.906875 37.01623047 4.360625 36.24730469 4.828125 35.45507812 C5.7784369 33.85599561 6.74211176 32.2647816 7.71875 30.68164062 C10.46179659 26.1152538 10.46179659 26.1152538 10.5859375 20.94921875 C10.06257812 19.97597656 9.53921875 19.00273438 9 18 C8.66097656 17.36392822 8.32195312 16.72785645 7.97265625 16.07250977 C6.81203655 13.94046932 5.60239232 11.84423814 4.375 9.75 C0 2.26150307 0 2.26150307 0 0 Z " fill="#0A0A0A" transform="translate(129,84)"/>
<path d="M0 0 C9.57 0 19.14 0 29 0 C29 2.31 29 4.62 29 7 C22.07 7 15.14 7 8 7 C8 10.96 8 14.92 8 19 C14.27 19 20.54 19 27 19 C27 21.31 27 23.62 27 26 C20.73 26 14.46 26 8 26 C8 30.62 8 35.24 8 40 C15.26 40 22.52 40 30 40 C30 42.31 30 44.62 30 47 C20.1 47 10.2 47 0 47 C0 31.49 0 15.98 0 0 Z " fill="#000000" transform="translate(348,84)"/>
<path d="M0 0 C3.49965436 1.36942997 4.66074199 2.44170648 6.609375 5.6484375 C8.20784826 9.50093766 8.4003591 12.34110738 8.375 16.5 C8.38273437 17.7684375 8.39046875 19.036875 8.3984375 20.34375 C7.86826418 25.20886988 6.56151546 28.66155818 2.8125 31.875 C-1.9396418 33.77585672 -6.0603582 33.77585672 -10.8125 31.875 C-14.64912933 28.58646057 -15.87745241 25.0952001 -16.43359375 20.125 C-16.45064874 18.75010516 -16.45171447 17.37492714 -16.4375 16 C-16.45748047 15.31421875 -16.47746094 14.6284375 -16.49804688 13.921875 C-16.49316713 8.8079022 -15.22197869 5.91531588 -12 2 C-7.94633625 -0.7024425 -4.75468449 -0.52736817 0 0 Z " fill="#F9F9F9" transform="translate(277,91)"/>
<path d="M0 0 C2.64 0 5.28 0 8 0 C8 13.2 8 26.4 8 40 C14.93 40 21.86 40 29 40 C29 42.31 29 44.62 29 47 C19.43 47 9.86 47 0 47 C0 31.49 0 15.98 0 0 Z " fill="#000000" transform="translate(217,84)"/>
<path d="M0 0 C10.01535761 -0.48266784 10.01535761 -0.48266784 14.1875 1.5625 C16 4 16 4 16.5625 7.5 C15.90697701 11.57880973 15.23242443 12.53413725 12 15 C7.93404512 15.52667809 4.11858117 15.17906875 0 15 C0 10.05 0 5.1 0 0 Z " fill="#EDEDED" transform="translate(183,91)"/>
<path d="M0 0 C10.31686258 -0.36845938 10.31686258 -0.36845938 13.33203125 1.2578125 C15 3 15 3 15.49609375 4.97265625 C15.43959515 6.98777281 15.22261985 8.99642139 15 11 C10.25368713 14.16420858 5.63243123 13.12112755 0 13 C0 8.71 0 4.42 0 0 Z " fill="#EFEFEF" transform="translate(313,91)"/>
</svg>
